<svg xmlns="http://www.w3.org/2000/svg" xmlns:xlink="http://www.w3.org/1999/xlink" width="368.392" height="48" viewBox="0 0 368.392 48">
  <defs>
    <clipPath id="clip-path">
      <rect id="Mask" width="368.392" height="48" fill="none"/>
    </clipPath>
  </defs>
  <g id="Path" transform="translate(0)">
    <rect id="Mask-2" data-name="Mask" width="368.392" height="48" transform="translate(0)" fill="none"/>
    <g id="Path-2" data-name="Path" transform="translate(0)" clip-path="url(#clip-path)">
      <path id="Path-3" data-name="Path" d="M10.049,33c14.776,0,17.63,7,28.26,7s13.457-9,26.914-9S80.8,20,93.484,20s13.077,13,25.569,13,14.391-7,26.915-7,16.149,5,32.3,5,20.186-18,34.989-18S229.4,23,242.859,23s18.84,8,33.643,8,17.416-8,32.3-8,18.353,17,32.3,17S358.061,8,372.049,8C387.73,8,390.242,17.731,403,18c14.882.313,16.926-10,33.643-10,17.526,0,18.682-8,32.3-8s13.615,8,26.775,8,21.671,53,21.671,53L269.774,71H4.666L1.975,33Z" transform="translate(-7.402 1)" fill="#11c1c1"/>
    </g>
  </g>
</svg>
