<svg xmlns="http://www.w3.org/2000/svg" width="363.322" height="32" viewBox="0 0 363.322 32">
  <g id="Group" transform="translate(0)">
    <rect id="Rectangle" width="16.283" height="25" transform="translate(20.354 7)" fill="#1890ff"/>
    <rect id="Rectangle-2" data-name="Rectangle" width="16.283" height="18" transform="translate(40.708 14)" fill="#1890ff"/>
    <rect id="Rectangle-3" data-name="Rectangle" width="16.283" height="14" transform="translate(61.062 18)" fill="#1890ff"/>
    <rect id="Rectangle-4" data-name="Rectangle" width="16.283" height="7" transform="translate(81.417 25)" fill="#1890ff"/>
    <rect id="Rectangle-5" data-name="Rectangle" width="16.283" height="7" transform="translate(0 25)" fill="#1890ff"/>
    <rect id="Rectangle-6" data-name="Rectangle" width="16.283" height="14" transform="translate(101.771 18)" fill="#1890ff"/>
    <rect id="Rectangle-7" data-name="Rectangle" width="16.283" height="25" transform="translate(123.143 7)" fill="#1890ff"/>
    <rect id="Rectangle-8" data-name="Rectangle" width="16.283" height="18" transform="translate(143.497 14)" fill="#1890ff"/>
    <rect id="Rectangle-9" data-name="Rectangle" width="16.283" height="21" transform="translate(163.851 11)" fill="#1890ff"/>
    <rect id="Rectangle-10" data-name="Rectangle" width="16.283" height="18" transform="translate(184.205 14)" fill="#1890ff"/>
    <rect id="Rectangle-11" data-name="Rectangle" width="16.283" height="32" transform="translate(204.559)" fill="#1890ff"/>
    <rect id="Rectangle-12" data-name="Rectangle" width="16.283" height="22" transform="translate(224.913 10)" fill="#1890ff"/>
    <rect id="Rectangle-13" data-name="Rectangle" width="16.283" height="11" transform="translate(245.268 21)" fill="#1890ff"/>
    <rect id="Rectangle-14" data-name="Rectangle" width="16.283" height="18" transform="translate(265.622 14)" fill="#1890ff"/>
    <rect id="Rectangle-15" data-name="Rectangle" width="16.283" height="32" transform="translate(285.976)" fill="#1890ff"/>
    <rect id="Rectangle-16" data-name="Rectangle" width="16.283" height="32" transform="translate(347.038)" fill="#1890ff"/>
    <rect id="Rectangle-17" data-name="Rectangle" width="16.283" height="22" transform="translate(306.33 10)" fill="#1890ff"/>
    <rect id="Rectangle-18" data-name="Rectangle" width="16.283" height="11" transform="translate(326.684 21)" fill="#1890ff"/>
  </g>
</svg>
