<?xml version="1.0" encoding="UTF-8"?>
<svg width="290px" height="32px" viewBox="0 0 290 32" version="1.1" xmlns="http://www.w3.org/2000/svg" xmlns:xlink="http://www.w3.org/1999/xlink">
    <!-- Generator: Sketch 52.2 (67145) - http://www.bohemiancoding.com/sketch -->
    <title>Chart 4</title>
    <desc>Created with Sketch.</desc>
    <g id="切图" stroke="none" stroke-width="1" fill="none" fill-rule="evenodd">
        <g id="Chart-4" fill="#975FE4" fill-rule="nonzero">
            <rect id="Rectangle" x="16.3047523" y="7" width="12.9504652" height="25"></rect>
            <rect id="Rectangle" x="32.4928338" y="14" width="12.9504652" height="18"></rect>
            <rect id="Rectangle" x="48.6809153" y="18" width="12.9504652" height="14"></rect>
            <rect id="Rectangle" x="64.8689967" y="25" width="12.9504652" height="7"></rect>
            <rect id="Rectangle" x="0.116670857" y="25" width="12.9504652" height="7"></rect>
            <rect id="Rectangle" x="81.0570782" y="18" width="12.9504652" height="14"></rect>
            <rect id="Rectangle" x="98.0545637" y="7" width="12.9504652" height="25"></rect>
            <rect id="Rectangle" x="114.242645" y="14" width="12.9504652" height="18"></rect>
            <rect id="Rectangle" x="130.430727" y="11" width="12.9504652" height="21"></rect>
            <rect id="Rectangle" x="146.618808" y="14" width="12.9504652" height="18"></rect>
            <rect id="Rectangle" x="162.80689" y="0" width="12.9504652" height="32"></rect>
            <rect id="Rectangle" x="178.994971" y="10" width="12.9504652" height="22"></rect>
            <rect id="Rectangle" x="195.183053" y="21" width="12.9504652" height="11"></rect>
            <rect id="Rectangle" x="211.371134" y="14" width="12.9504652" height="18"></rect>
            <rect id="Rectangle" x="227.559215" y="0" width="12.9504652" height="32"></rect>
            <rect id="Rectangle" x="276.12346" y="0" width="12.9504652" height="32"></rect>
            <rect id="Rectangle" x="243.747297" y="10" width="12.9504652" height="22"></rect>
            <rect id="Rectangle" x="259.935378" y="21" width="12.9504652" height="11"></rect>
        </g>
    </g>
</svg>