<?xml version="1.0" encoding="UTF-8"?>
<svg width="524px" height="32px" viewBox="0 0 524 32" version="1.1" xmlns="http://www.w3.org/2000/svg" xmlns:xlink="http://www.w3.org/1999/xlink">
    <!-- Generator: Sketch 52.2 (67145) - http://www.bohemiancoding.com/sketch -->
    <title>Chart 2</title>
    <desc>Created with Sketch.</desc>
    <defs>
        <linearGradient x1="0%" y1="50%" x2="100%" y2="50%" id="linearGradient-1">
            <stop stop-color="#C2E9FB" offset="0%"></stop>
            <stop stop-color="#A1C4FD" offset="100%"></stop>
        </linearGradient>
    </defs>
    <g id="切图" stroke="none" stroke-width="1" fill="none" fill-rule="evenodd">
        <g id="Chart-2" fill="#1890FF" fill-rule="nonzero">
            <rect id="Rectangle" x="29" y="7" width="23" height="25"></rect>
            <rect id="Rectangle" x="57" y="14" width="23" height="18"></rect>
            <rect id="Rectangle" x="90" y="18" width="23" height="14"></rect>
            <rect id="Rectangle" x="118" y="25" width="23" height="7"></rect>
            <rect id="Rectangle" x="0" y="25" width="23" height="7"></rect>
            <rect id="Rectangle" x="147" y="18" width="23" height="14"></rect>
            <rect id="Rectangle" x="178" y="7" width="23" height="25"></rect>
            <rect id="Rectangle" x="207" y="14" width="23" height="18"></rect>
            <rect id="Rectangle" x="235" y="11" width="23" height="21"></rect>
            <rect id="Rectangle" x="267" y="14" width="23" height="18"></rect>
            <rect id="Rectangle" x="296" y="0" width="23" height="32"></rect>
            <rect id="Rectangle" x="324" y="10" width="23" height="22"></rect>
            <rect id="Rectangle" x="355" y="21" width="23" height="11"></rect>
            <rect id="Rectangle" x="383" y="14" width="23" height="18"></rect>
            <rect id="Rectangle" x="412" y="0" width="23" height="32"></rect>
            <rect id="Rectangle" x="501" y="0" width="23" height="32"></rect>
            <rect id="Rectangle" x="444" y="10" width="23" height="22"></rect>
            <rect id="Rectangle" x="473" y="21" width="23" height="11"></rect>
        </g>
    </g>
</svg>