<?xml version="1.0" encoding="UTF-8"?>
<svg width="290px" height="39px" viewBox="0 0 290 39" version="1.1" xmlns="http://www.w3.org/2000/svg" xmlns:xlink="http://www.w3.org/1999/xlink">
    <!-- Generator: Sketch 52.2 (67145) - http://www.bohemiancoding.com/sketch -->
    <title>Line 2</title>
    <desc>Created with Sketch.</desc>
    <defs>
        <rect id="path-1" x="0" y="0" width="290" height="48"></rect>
    </defs>
    <g id="切图" stroke="none" stroke-width="1" fill="none" fill-rule="evenodd">
        <g id="Line-2" transform="translate(0.000000, -9.000000)">
            <mask id="mask-2" fill="white">
                <use xlink:href="#path-1"></use>
            </mask>
            <g id="Mask" fill-rule="nonzero"></g>
            <path d="M1.98187193,34 C13.6139856,34 15.8608949,41 24.2297404,41 C32.598586,41 34.8239636,32 45.4181867,32 C56.0124098,32 57.6836673,21 67.6660552,21 C77.6484431,21 77.9612199,34 87.7950791,34 C97.6289383,34 99.1245512,27 108.983525,27 C118.842499,27 121.696593,32 134.409661,32 C147.122728,32 150.300995,14 161.954641,14 C173.608286,14 174.667709,24 185.261932,24 C195.856155,24 200.093844,32 211.747489,32 C223.401135,32 225.458577,24 237.173625,24 C248.888673,24 251.621775,41 262.59976,41 C273.577745,41 275.954791,9 286.966473,9 C299.311206,9 301.289411,18.7314313 311.333187,19 C323.049004,19.3132788 324.657909,9 337.818744,9 C351.615863,9 352.526339,1 363.24488,1 C373.96342,1 373.96342,9 384.323271,9 C391.229839,9 396.916776,26.6666667 401.384083,62 L206.450378,72 L-2.25581732,72 L-4.37466194,34 C-7.89171516,34 -5.77287054,34 1.98187193,34 Z" id="Path" fill="#FA6E86" fill-rule="nonzero" mask="url(#mask-2)"></path>
        </g>
    </g>
</svg>