<?xml version="1.0" encoding="UTF-8"?>
<svg width="524px" height="39px" viewBox="0 0 524 39" version="1.1" xmlns="http://www.w3.org/2000/svg" xmlns:xlink="http://www.w3.org/1999/xlink">
    <!-- Generator: Sketch 52.2 (67145) - http://www.bohemiancoding.com/sketch -->
    <title>Line 1</title>
    <desc>Created with Sketch.</desc>
    <defs>
        <rect id="path-1" x="0" y="0" width="524" height="48"></rect>
    </defs>
    <g id="切图" stroke="none" stroke-width="1" fill="none" fill-rule="evenodd">
        <g id="Line-1" transform="translate(0.000000, -9.000000)">
            <mask id="mask-2" fill="white">
                <use xlink:href="#path-1"></use>
            </mask>
            <g id="Mask" fill-rule="nonzero"></g>
            <path d="M3.44414137,34 C24.4697893,34 28.531194,41 43.6583158,41 C58.7854376,41 62.8079227,32 81.9575296,32 C101.107137,32 104.128021,21 122.171704,21 C140.215387,21 140.780748,34 158.555957,34 C176.331167,34 179.034565,27 196.855171,27 C214.675777,27 219.834699,32 242.814228,32 C265.793756,32 271.538638,14 292.603205,14 C313.667773,14 315.582734,24 334.732341,24 C353.881948,24 361.54179,32 382.606358,32 C403.670925,32 407.389859,24 428.565414,24 C449.74097,24 454.681194,41 474.524471,41 C494.367747,41 498.66438,9 518.568567,9 C540.882309,9 544.458018,18.7314313 562.612663,19 C583.789609,19.3132788 586.697789,9 610.48668,9 C635.425686,9 637.071419,1 656.445736,1 C675.820053,1 675.820053,9 694.54602,9 C707.029998,9 717.309432,26.6666667 725.384321,62 L373.031554,72 L-4.21570138,72 L-8.04562276,34 C-14.4028786,34 -10.5729572,34 3.44414137,34 Z" id="Path" fill="#FFB980" fill-rule="nonzero" mask="url(#mask-2)"></path>
        </g>
    </g>
</svg>