<?xml version="1.0" encoding="UTF-8"?>
<svg width="290px" height="39px" viewBox="0 0 290 39" version="1.1" xmlns="http://www.w3.org/2000/svg" xmlns:xlink="http://www.w3.org/1999/xlink">
    <!-- Generator: Sketch 52.2 (67145) - http://www.bohemiancoding.com/sketch -->
    <title>Line 3</title>
    <desc>Created with Sketch.</desc>
    <defs>
        <rect id="path-1" x="0" y="0" width="290" height="48"></rect>
    </defs>
    <g id="切图" stroke="none" stroke-width="1" fill="none" fill-rule="evenodd">
        <g id="Line-3" transform="translate(0.000000, -9.000000)">
            <mask id="mask-2" fill="white">
                <use xlink:href="#path-1"></use>
            </mask>
            <g id="Mask" fill-rule="nonzero"></g>
            <path d="M0.978411718,34 C12.6105254,34 14.8574346,41 23.2262802,41 C31.5951258,41 33.8205033,32 44.4147265,32 C55.0089496,32 56.6802071,21 66.662595,21 C76.6449829,21 76.9577597,34 86.7916189,34 C96.6254781,34 98.121091,27 107.980065,27 C117.839039,27 120.693133,32 133.406201,32 C146.119268,32 149.297535,14 160.951181,14 C172.604826,14 173.664248,24 184.258471,24 C194.852695,24 199.090384,32 210.744029,32 C222.397675,32 224.455117,24 236.170165,24 C247.885212,24 250.618315,41 261.5963,41 C272.574285,41 274.951331,9 285.963013,9 C298.307745,9 300.285951,18.7314313 310.329726,19 C322.045544,19.3132788 323.654449,9 336.815284,9 C350.612402,9 351.522879,1 362.24142,1 C372.95996,1 372.95996,9 383.319811,9 C390.226378,9 395.913316,26.6666667 400.380623,62 L205.446918,72 L-3.25927752,72 L-5.37812215,34 C-8.89517537,34 -6.77633075,34 0.978411718,34 Z" id="Path" fill="#C4B4E4" fill-rule="nonzero" mask="url(#mask-2)"></path>
        </g>
    </g>
</svg>