<?xml version="1.0" encoding="UTF-8"?>
<svg width="23px" height="23px" viewBox="0 0 23 23" version="1.1" xmlns="http://www.w3.org/2000/svg" xmlns:xlink="http://www.w3.org/1999/xlink">
    <!-- Generator: Sketch 52.4 (67378) - http://www.bohemiancoding.com/sketch -->
    <title>分享</title>
    <desc>Created with Sketch.</desc>
    <g id="商城" stroke="none" stroke-width="1" fill="none" fill-rule="evenodd">
        <g id="质检报告证书1112a" transform="translate(-23.000000, -740.000000)">
            <g id="分享" transform="translate(23.000000, 740.000000)">
                <rect id="Rectangle" fill="#000000" opacity="0" x="0" y="0" width="24" height="24"></rect>
                <path d="M19.1709799,15.3276212 C17.7137731,15.3276212 16.4619988,16.1526326 15.8149352,17.3529554 L7.32263278,13.0393481 C7.53465986,12.5626936 7.65798763,12.0380262 7.65798763,11.4825348 C7.65798763,10.8922708 7.51403517,10.3397538 7.27628635,9.84019846 L16.1438793,6.17889823 C16.8444621,7.0814567 17.926457,7.67237874 19.1560302,7.67237874 C21.2707049,7.67237874 22.9850241,5.95489062 22.9850241,3.83618936 C22.9850241,1.71754074 21.2706786,0 19.1560302,0 C17.041303,0 15.3270364,1.71754074 15.3270364,3.83618936 C15.3270364,4.03526923 15.3563051,4.22650482 15.3855212,4.41739828 L5.97256932,8.30381166 C5.36084357,7.88896325 4.62329407,7.6463454 3.82899383,7.6463454 C1.7142666,7.6463454 0,9.36391246 0,11.4825348 C0,13.601236 1.71426664,15.3187241 3.82899383,15.3187241 C4.67810059,15.3187241 5.45516542,15.0327789 6.0901432,14.5641265 L15.3525743,19.2688652 C15.4094302,21.3377373 17.0921948,23 19.1710061,23 C21.2856808,23 23,21.2825119 23,19.1638107 C22.9999737,17.0451884 21.2856545,15.3276212 19.1709799,15.3276212 Z" id="Path" fill="#3D4B78"></path>
            </g>
        </g>
    </g>
</svg>