<?xml version="1.0" encoding="UTF-8"?>
<svg width="524px" height="32px" viewBox="0 0 524 32" version="1.1" xmlns="http://www.w3.org/2000/svg" xmlns:xlink="http://www.w3.org/1999/xlink">
    <!-- Generator: Sketch 52.2 (67145) - http://www.bohemiancoding.com/sketch -->
    <title>Chart 1</title>
    <desc>Created with Sketch.</desc>
    <g id="切图" stroke="none" stroke-width="1" fill="none" fill-rule="evenodd">
        <g id="Chart-1" fill="#19D4AE" fill-rule="nonzero">
            <rect id="Rectangle" x="29" y="7" width="23" height="25"></rect>
            <rect id="Rectangle" x="57" y="14" width="23" height="18"></rect>
            <rect id="Rectangle" x="87" y="18" width="23" height="14"></rect>
            <rect id="Rectangle" x="116" y="25" width="23" height="7"></rect>
            <rect id="Rectangle" x="0" y="25" width="23" height="7"></rect>
            <rect id="Rectangle" x="148" y="18" width="23" height="14"></rect>
            <rect id="Rectangle" x="178" y="7" width="23" height="25"></rect>
            <rect id="Rectangle" x="207" y="14" width="23" height="18"></rect>
            <rect id="Rectangle" x="236" y="11" width="23" height="21"></rect>
            <rect id="Rectangle" x="266" y="14" width="23" height="18"></rect>
            <rect id="Rectangle" x="295" y="0" width="23" height="32"></rect>
            <rect id="Rectangle" x="324" y="10" width="23" height="22"></rect>
            <rect id="Rectangle" x="353" y="21" width="23" height="11"></rect>
            <rect id="Rectangle" x="384" y="14" width="23" height="18"></rect>
            <rect id="Rectangle" x="414" y="0" width="23" height="32"></rect>
            <rect id="Rectangle" x="501" y="0" width="23" height="32"></rect>
            <rect id="Rectangle" x="443" y="10" width="23" height="22"></rect>
            <rect id="Rectangle" x="472" y="21" width="23" height="11"></rect>
        </g>
    </g>
</svg>